<?xml version="1.0" encoding="UTF-8" standalone="no"?>
<!--?xml version="1.0" standalone="no"?-->

<svg
   xmlns:dc="http://purl.org/dc/elements/1.1/"
   xmlns:cc="http://creativecommons.org/ns#"
   xmlns:rdf="http://www.w3.org/1999/02/22-rdf-syntax-ns#"
   xmlns:svg="http://www.w3.org/2000/svg"
   xmlns="http://www.w3.org/2000/svg"
   xmlns:sodipodi="http://sodipodi.sourceforge.net/DTD/sodipodi-0.dtd"
   xmlns:inkscape="http://www.inkscape.org/namespaces/inkscape"
   version="1.0"
   width="300.000000pt"
   height="300.000000pt"
   viewBox="0 0 300.000000 300.000000"
   preserveAspectRatio="xMidYMid meet"
   id="svg4136"
   inkscape:version="0.91 r13725"
   sodipodi:docname="mail-black.svg">
  <metadata
     id="metadata4149">
    <rdf:RDF>
      <cc:Work
         rdf:about="">
        <dc:format>image/svg+xml</dc:format>
        <dc:type
           rdf:resource="http://purl.org/dc/dcmitype/StillImage" />
      </cc:Work>
    </rdf:RDF>
  </metadata>
  <defs
     id="defs4147" />
  <sodipodi:namedview
     pagecolor="#ffffff"
     bordercolor="#666666"
     borderopacity="1"
     objecttolerance="10"
     gridtolerance="10"
     guidetolerance="10"
     inkscape:pageopacity="0"
     inkscape:pageshadow="2"
     inkscape:window-width="1536"
     inkscape:window-height="801"
     id="namedview4145"
     showgrid="false"
     inkscape:zoom="1.6906667"
     inkscape:cx="187.5"
     inkscape:cy="187.5"
     inkscape:window-x="-8"
     inkscape:window-y="-8"
     inkscape:window-maximized="1"
     inkscape:current-layer="svg4136" />
  <g
     transform="translate(0.000000,300.000000) scale(0.100000,-0.100000)"
     fill="#000000"
     stroke="none"
     id="g4138"
     style="fill:#7289da;fill-opacity:1">
    <path
       class="node"
       id="node1"
       d="M148 2731 c-54 -25 -107 -77 -129 -125 -14 -30 -19 -65 -19 -132 l0 -91 153 -120 c614 -483 1084 -803 1280 -874 67 -24 67 -24 119 -6 106 37 221 101 436 243 106 70 132 87 296 204 125 89 399 295 569 429 l147 116 0 90 c-1 137 -42 213 -145 261 l-50 24 -1310 -1 c-1224 -1 -1312 -2 -1347 -18z"
       style="fill:#7289da;fill-opacity:1" />
    <path
       class="node"
       id="node2"
       d="M0 1221 c0 -862 -3 -821 63 -889 18 -19 53 -45 79 -58 l47 -24 1308 0 1308 0 50 24 c59 27 106 77 129 137 15 40 16 120 14 817 l-3 774 -107 -84 c-131 -101 -226 -173 -282 -213 -23 -16 -130 -93 -236 -169 -363 -260 -643 -432 -786 -481 -69 -24 -82 -25 -123 -15 -71 18 -231 98 -351 175 -95 61 -362 239 -416 277 -236 166 -555 400 -665 486 l-29 24 0 -781z"
       style="fill:#7289da;fill-opacity:1" />
  </g>
  <g
     transform="translate(0.000000,300.000000) scale(0.100000,-0.100000)"
     fill="#FFFFFF"
     stroke="none"
     id="g4142">
    <path
       class="node"
       id="node4"
       d="M0 2192 l0 -190 29 -24 c110 -86 429 -320 665 -486 54 -38 321 -216 416 -277 120 -77 280 -157 351 -175 41 -10 54 -9 123 15 142 49 439 231 801 491 99 71 196 140 215 154 42 31 144 108 290 220 l110 85 0 183 c0 144 -3 182 -12 176 -7 -5 -65 -49 -128 -99 -137 -109 -452 -347 -574 -434 -167 -118 -191 -135 -298 -205 -215 -142 -330 -206 -436 -243 -52 -18 -52 -18 -119 6 -195 70 -695 411 -1288 879 -66 52 -126 99 -132 105 -10 7 -13 -30 -13 -181z" />
  </g>
</svg>
